<?xml version="1.0" encoding="UTF-8"?>
<svg xmlns="http://www.w3.org/2000/svg" 
     xmlns:xlink="http://www.w3.org/1999/xlink"
     width="2440" height="2820" 
     viewBox="0 0 2440 2820">
  <defs>
    <radialGradient id="leafGradient">
      <stop offset="0%" style="stop-color:#22c55e;stop-opacity:1" />
      <stop offset="100%" style="stop-color:#16a34a;stop-opacity:0.8" />
    </radialGradient>
    <radialGradient id="mergeGradient">
      <stop offset="0%" style="stop-color:#a78bfa;stop-opacity:1" />
      <stop offset="100%" style="stop-color:#7c3aed;stop-opacity:0.8" />
    </radialGradient>
    <radialGradient id="forkGradient">
      <stop offset="0%" style="stop-color:#fb923c;stop-opacity:1" />
      <stop offset="100%" style="stop-color:#ea580c;stop-opacity:0.8" />
    </radialGradient>
    <radialGradient id="tagGradient">
      <stop offset="0%" style="stop-color:#38bdf8;stop-opacity:1" />
      <stop offset="100%" style="stop-color:#0284c7;stop-opacity:0.8" />
    </radialGradient>
    <style>
      .branch-line { stroke: #64748b; stroke-width: 2; fill: none; opacity: 0.7; }
      .trunk-line { stroke: #22c55e; stroke-width: 2.5; fill: none; opacity: 0.6; }
      .commit-leaf { cursor: pointer; }
      .commit-leaf:hover { filter: brightness(1.5); }
      .branch-label { font-family: sans-serif; font-size: 12px; font-weight: bold; fill: #0f172a; }
    </style>
  </defs>
  
  <rect width="2440" height="2820" fill="#f8fafc"/>
  <defs>
    <pattern id="grid" width="100" height="100" patternUnits="userSpaceOnUse">
      <path d="M 100 0 L 0 0 0 100" fill="none" stroke="#e2e8f0" stroke-width="0.5" opacity="0.3"/>
    </pattern>
  </defs>
  <rect width="2440" height="2820" fill="url(#grid)"/>
  
  <!-- Branch connection lines -->
  <g id="branches">
    <line class="trunk-line" x1="600" y1="60" x2="600" y2="100"/>
    <line class="trunk-line" x1="600" y1="100" x2="600" y2="140"/>
    <path class="branch-line" d="M 600 100 C 600 132, 720 148, 720 180"/>
    <line class="trunk-line" x1="600" y1="140" x2="600" y2="260"/>
    <path class="branch-line" d="M 720 180 C 720 212, 600 228, 600 260"/>
    <line class="trunk-line" x1="600" y1="260" x2="600" y2="380"/>
    <path class="branch-line" d="M 600 260 C 600 276, 480 284, 480 300"/>
    <path class="branch-line" d="M 480 300 C 480 332, 600 348, 600 380"/>
    <line class="trunk-line" x1="600" y1="380" x2="600" y2="420"/>
    <path class="branch-line" d="M 600 380 C 600 412, 840 428, 840 460"/>
    <line class="trunk-line" x1="600" y1="420" x2="600" y2="540"/>
    <path class="branch-line" d="M 840 460 C 840 492, 600 508, 600 540"/>
    <line class="trunk-line" x1="600" y1="540" x2="600" y2="580"/>
    <line class="trunk-line" x1="600" y1="580" x2="600" y2="620"/>
    <path class="branch-line" d="M 600 580 C 600 612, 360 628, 360 660"/>
    <line class="trunk-line" x1="600" y1="620" x2="600" y2="740"/>
    <path class="branch-line" d="M 360 660 C 360 692, 600 708, 600 740"/>
    <line class="trunk-line" x1="600" y1="740" x2="600" y2="860"/>
    <path class="branch-line" d="M 600 740 C 600 756, 960 764, 960 780"/>
    <path class="branch-line" d="M 960 780 C 960 812, 600 828, 600 860"/>
    <line class="trunk-line" x1="600" y1="860" x2="600" y2="980"/>
    <path class="branch-line" d="M 600 860 C 600 876, 240 884, 240 900"/>
    <path class="branch-line" d="M 240 900 C 240 932, 600 948, 600 980"/>
    <line class="trunk-line" x1="600" y1="980" x2="600" y2="1020"/>
    <line class="trunk-line" x1="600" y1="1020" x2="600" y2="1060"/>
    <line class="trunk-line" x1="600" y1="1060" x2="600" y2="1100"/>
    <path class="branch-line" d="M 600 1060 C 600 1092, 1080 1108, 1080 1140"/>
    <line class="trunk-line" x1="600" y1="1100" x2="600" y2="1220"/>
    <path class="branch-line" d="M 1080 1140 C 1080 1172, 600 1188, 600 1220"/>
    <line class="trunk-line" x1="600" y1="1220" x2="600" y2="1260"/>
    <path class="branch-line" d="M 600 1220 C 600 1252, 120 1268, 120 1300"/>
    <line class="trunk-line" x1="600" y1="1260" x2="600" y2="1380"/>
    <path class="branch-line" d="M 120 1300 C 120 1332, 600 1348, 600 1380"/>
    <line class="trunk-line" x1="600" y1="1380" x2="600" y2="1420"/>
    <line class="trunk-line" x1="600" y1="1420" x2="600" y2="1460"/>
    <line class="trunk-line" x1="600" y1="1460" x2="600" y2="1500"/>
    <line class="trunk-line" x1="600" y1="1500" x2="600" y2="1540"/>
    <line class="trunk-line" x1="600" y1="1540" x2="600" y2="1660"/>
    <path class="branch-line" d="M 600 1540 C 600 1556, 1200 1564, 1200 1580"/>
    <path class="branch-line" d="M 1200 1580 C 1200 1612, 600 1628, 600 1660"/>
    <line class="trunk-line" x1="600" y1="1660" x2="600" y2="2020"/>
    <path class="branch-line" d="M 0 1700 C 0 1732, 1320 1748, 1320 1780"/>
    <path class="branch-line" d="M 1320 1780 C 1320 1876, 600 1924, 600 2020"/>
    <path class="branch-line" d="M -120 1860 C -120 1892, 1440 1908, 1440 1940"/>
    <path class="branch-line" d="M 1440 1940 C 1440 1972, 600 1988, 600 2020"/>
    <line class="trunk-line" x1="600" y1="2020" x2="600" y2="2060"/>
    <line class="trunk-line" x1="600" y1="2060" x2="600" y2="2340"/>
    <path class="branch-line" d="M 600 2060 C 600 2076, -240 2084, -240 2100"/>
    <path class="branch-line" d="M -240 2100 C -240 2196, 600 2244, 600 2340"/>
    <path class="branch-line" d="M 1560 2180 C 1560 2212, -360 2228, -360 2260"/>
    <path class="branch-line" d="M -360 2260 C -360 2308, 600 2332, 600 2380"/>
    <line class="trunk-line" x1="600" y1="2340" x2="600" y2="2380"/>
    <line class="trunk-line" x1="600" y1="2380" x2="600" y2="2420"/>
    <line class="trunk-line" x1="600" y1="2420" x2="600" y2="2540"/>
    <path class="branch-line" d="M 600 2420 C 600 2436, 1680 2444, 1680 2460"/>
    <path class="branch-line" d="M 1680 2460 C 1680 2492, 600 2508, 600 2540"/>
    <line class="trunk-line" x1="600" y1="2540" x2="600" y2="2580"/>
    <line class="trunk-line" x1="600" y1="2580" x2="600" y2="2620"/>
    <line class="trunk-line" x1="600" y1="2620" x2="600" y2="2660"/>
    <line class="trunk-line" x1="600" y1="2660" x2="600" y2="2700"/>
  </g>
  <!-- Commit nodes -->
  <g id="commits">
    <circle class="commit-leaf" cx="600" cy="60" r="6" fill="url(#leafGradient)" stroke="#16a34a" stroke-width="1.5"><title>d37db16: chore: update 1 submodule(s) to latest</title></circle>
    <circle class="commit-leaf" cx="600" cy="100" r="10" fill="url(#mergeGradient)" stroke="#7c3aed" stroke-width="1.5"><title>7699175: Merge pull request #12 from XAOSTECH:chore/update-submodules-20260615-035924</title></circle>
    <circle class="commit-leaf" cx="600" cy="140" r="6" fill="url(#leafGradient)" stroke="#16a34a" stroke-width="1.5"><title>9dee3c1: chore: update git tree visualisation</title></circle>
    <circle class="commit-leaf" cx="720" cy="180" r="6" fill="url(#leafGradient)" stroke="#16a34a" stroke-width="1.5"><title>378da79: chore: update 1 submodule(s) to latest</title></circle>
    <circle class="commit-leaf" cx="600" cy="260" r="10" fill="url(#mergeGradient)" stroke="#7c3aed" stroke-width="1.5"><title>285b2ab: Merge pull request #11 from XAOSTECH:chore/update-submodules-20260608-034231</title></circle>
    <circle class="commit-leaf" cx="480" cy="300" r="6" fill="url(#leafGradient)" stroke="#16a34a" stroke-width="1.5"><title>b9a69e2: chore: update 1 submodule(s) to latest</title></circle>
    <circle class="commit-leaf" cx="600" cy="380" r="10" fill="url(#mergeGradient)" stroke="#7c3aed" stroke-width="1.5"><title>736db9d: Merge pull request #10 from XAOSTECH:chore/update-submodules-20260601-034534</title></circle>
    <circle class="commit-leaf" cx="600" cy="420" r="6" fill="url(#leafGradient)" stroke="#16a34a" stroke-width="1.5"><title>dc23603: chore: update git tree visualisation</title></circle>
    <circle class="commit-leaf" cx="840" cy="460" r="6" fill="url(#leafGradient)" stroke="#16a34a" stroke-width="1.5"><title>3778c3f: chore: update 1 submodule(s) to latest</title></circle>
    <circle class="commit-leaf" cx="600" cy="540" r="9" fill="url(#forkGradient)" stroke="#ea580c" stroke-width="1.5"><title>23a5d31: chore: update git tree visualisation</title></circle>
    <circle class="commit-leaf" cx="600" cy="580" r="10" fill="url(#mergeGradient)" stroke="#7c3aed" stroke-width="1.5"><title>0946927: Merge pull request #9 from XAOSTECH:chore/update-submodules-20260518-032655</title></circle>
    <circle class="commit-leaf" cx="600" cy="620" r="6" fill="url(#leafGradient)" stroke="#16a34a" stroke-width="1.5"><title>b4aab27: chore: update git tree visualisation</title></circle>
    <circle class="commit-leaf" cx="360" cy="660" r="6" fill="url(#leafGradient)" stroke="#16a34a" stroke-width="1.5"><title>e80ec01: chore: update 1 submodule(s) to latest</title></circle>
    <circle class="commit-leaf" cx="600" cy="740" r="10" fill="url(#mergeGradient)" stroke="#7c3aed" stroke-width="1.5"><title>3243a22: Merge pull request #8 from XAOSTECH:chore/update-submodules-20260511-025243</title></circle>
    <circle class="commit-leaf" cx="960" cy="780" r="6" fill="url(#leafGradient)" stroke="#16a34a" stroke-width="1.5"><title>f048556: chore: update 3 submodule(s) to latest</title></circle>
    <circle class="commit-leaf" cx="600" cy="860" r="10" fill="url(#mergeGradient)" stroke="#7c3aed" stroke-width="1.5"><title>fc435aa: Merge pull request #7 from XAOSTECH:chore/update-submodules-20260504-023828</title></circle>
    <circle class="commit-leaf" cx="240" cy="900" r="6" fill="url(#leafGradient)" stroke="#16a34a" stroke-width="1.5"><title>f1ef712: chore: update 1 submodule(s) to latest</title></circle>
    <circle class="commit-leaf" cx="600" cy="980" r="9" fill="url(#forkGradient)" stroke="#ea580c" stroke-width="1.5"><title>f57dd4e: chore: update git tree visualisation</title></circle>
    <circle class="commit-leaf" cx="600" cy="1020" r="6" fill="url(#leafGradient)" stroke="#16a34a" stroke-width="1.5"><title>f6baecd: chore: update git tree visualisation</title></circle>
    <circle class="commit-leaf" cx="600" cy="1060" r="10" fill="url(#mergeGradient)" stroke="#7c3aed" stroke-width="1.5"><title>53e682b: Merge pull request #6 from XAOSTECH:chore/update-submodules-20260413-022844</title></circle>
    <circle class="commit-leaf" cx="600" cy="1100" r="6" fill="url(#leafGradient)" stroke="#16a34a" stroke-width="1.5"><title>b77277f: chore: update git tree visualisation</title></circle>
    <circle class="commit-leaf" cx="1080" cy="1140" r="6" fill="url(#leafGradient)" stroke="#16a34a" stroke-width="1.5"><title>ff93c14: chore: update 1 submodule(s) to latest</title></circle>
    <circle class="commit-leaf" cx="600" cy="1220" r="10" fill="url(#mergeGradient)" stroke="#7c3aed" stroke-width="1.5"><title>04a6dcc: Merge pull request #5 from XAOSTECH:chore/update-submodules-20260406-021241</title></circle>
    <circle class="commit-leaf" cx="600" cy="1260" r="6" fill="url(#leafGradient)" stroke="#16a34a" stroke-width="1.5"><title>1fefa61: chore: update git tree visualisation</title></circle>
    <circle class="commit-leaf" cx="120" cy="1300" r="6" fill="url(#leafGradient)" stroke="#16a34a" stroke-width="1.5"><title>651e60f: chore: update 3 submodule(s) to latest</title></circle>
    <circle class="commit-leaf" cx="600" cy="1380" r="9" fill="url(#forkGradient)" stroke="#ea580c" stroke-width="1.5"><title>7a3b1de: chore: update git tree visualisation</title></circle>
    <circle class="commit-leaf" cx="600" cy="1420" r="6" fill="url(#leafGradient)" stroke="#16a34a" stroke-width="1.5"><title>478cf7a: chore(dc-init): load workflows,actions</title></circle>
    <circle class="commit-leaf" cx="600" cy="1460" r="6" fill="url(#leafGradient)" stroke="#16a34a" stroke-width="1.5"><title>6428e85: chore(dc-init): update workflows,actions</title></circle>
    <circle class="commit-leaf" cx="600" cy="1500" r="6" fill="url(#leafGradient)" stroke="#16a34a" stroke-width="1.5"><title>a45c24b: chore(dc-init): recover interrupted update</title></circle>
    <circle class="commit-leaf" cx="600" cy="1540" r="10" fill="url(#mergeGradient)" stroke="#7c3aed" stroke-width="1.5"><title>f8e219c: Merge pull request #4 from XAOSTECH:chore/update-submodules-20260314-202008</title></circle>
    <circle class="commit-leaf" cx="1200" cy="1580" r="6" fill="url(#leafGradient)" stroke="#16a34a" stroke-width="1.5"><title>eb1cbd5: chore: update 5 submodule(s) to latest</title></circle>
    <circle class="commit-leaf" cx="600" cy="1660" r="9" fill="url(#forkGradient)" stroke="#ea580c" stroke-width="1.5"><title>c0b7b4d: chore(dc-init): update workflows/actions</title></circle>
    <circle class="commit-leaf" cx="0" cy="1700" r="6" fill="url(#leafGradient)" stroke="#16a34a" stroke-width="1.5"><title>ab5b093: chore: update 5 submodule(s) to latest</title></circle>
    <circle class="commit-leaf" cx="1320" cy="1780" r="6" fill="url(#leafGradient)" stroke="#16a34a" stroke-width="1.5"><title>c85fc48: chore(dc-init): update workflows/actions</title></circle>
    <circle class="commit-leaf" cx="-120" cy="1860" r="6" fill="url(#leafGradient)" stroke="#16a34a" stroke-width="1.5"><title>47c795e: chore: update 5 submodule(s) to latest</title></circle>
    <circle class="commit-leaf" cx="1440" cy="1940" r="6" fill="url(#leafGradient)" stroke="#16a34a" stroke-width="1.5"><title>6b6243c: chore(dc-init): update workflows/actions</title></circle>
    <circle class="commit-leaf" cx="600" cy="2020" r="9" fill="url(#forkGradient)" stroke="#ea580c" stroke-width="1.5"><title>ac5c738: chore(dc-contain) + fix (replace.yml): remove dash</title></circle>
    <circle class="commit-leaf" cx="600" cy="2060" r="10" fill="url(#mergeGradient)" stroke="#7c3aed" stroke-width="1.5"><title>d2bd2ed: Merge pull request #3 from XAOSTECH:anglicise/20260306-022118\n\nchore: Convert American spellings to British English</title></circle>
    <circle class="commit-leaf" cx="-240" cy="2100" r="6" fill="url(#leafGradient)" stroke="#16a34a" stroke-width="1.5"><title>b5d5eb6: chore: convert American spellings to British English</title></circle>
    <circle class="commit-leaf" cx="1560" cy="2180" r="6" fill="url(#leafGradient)" stroke="#16a34a" stroke-width="1.5"><title>4928eeb: chore: convert American spellings to British English</title></circle>
    <circle class="commit-leaf" cx="-360" cy="2260" r="6" fill="url(#leafGradient)" stroke="#16a34a" stroke-width="1.5"><title>4fc3ed2: chore: dc-init 2</title></circle>
    <circle class="commit-leaf" cx="600" cy="2340" r="9" fill="url(#forkGradient)" stroke="#ea580c" stroke-width="1.5"><title>aac0ca2: chore: dc-init 2</title></circle>
    <circle class="commit-leaf" cx="600" cy="2380" r="9" fill="url(#forkGradient)" stroke="#ea580c" stroke-width="1.5"><title>59ba59d: Update monorepo docs: reflect unlimited crash recovery, fix crash limit references</title></circle>
    <circle class="commit-leaf" cx="600" cy="2420" r="10" fill="url(#mergeGradient)" stroke="#7c3aed" stroke-width="1.5"><title>0acaba1: Merge pull request #1 from XAOSTECH:anglicise/20260301-022549\n\nchore: Convert American spellings to British English</title></circle>
    <circle class="commit-leaf" cx="1680" cy="2460" r="6" fill="url(#leafGradient)" stroke="#16a34a" stroke-width="1.5"><title>7728aff: chore: convert American spellings to British English</title></circle>
    <circle class="commit-leaf" cx="600" cy="2540" r="9" fill="url(#forkGradient)" stroke="#ea580c" stroke-width="1.5"><title>be1fc23: Update main documentation: integrate all modules with credits</title></circle>
    <circle class="commit-leaf" cx="600" cy="2580" r="6" fill="url(#leafGradient)" stroke="#16a34a" stroke-width="1.5"><title>4bfff04: chore: dc-contain + americanise</title></circle>
    <circle class="commit-leaf" cx="600" cy="2620" r="6" fill="url(#leafGradient)" stroke="#16a34a" stroke-width="1.5"><title>8999317: docs: comprehensive P010 HDR integration README at workspace root</title></circle>
    <circle class="commit-leaf" cx="600" cy="2660" r="6" fill="url(#leafGradient)" stroke="#16a34a" stroke-width="1.5"><title>ba392de: chore: add P010_for_V4L2 as submodule for Linux HDR kernel support</title></circle>
    <circle class="commit-leaf" cx="600" cy="2700" r="6" fill="url(#leafGradient)" stroke="#16a34a" stroke-width="1.5"><title>4b54122: dc-init</title></circle>
  </g>
  
  <!-- Legend -->
  <g id="legend" transform="translate(20, 20)">
    <rect width="200" height="110" fill="white" stroke="#cbd5e1" stroke-width="1" rx="4"/>
    <circle cx="20" cy="25" r="5" fill="url(#leafGradient)" stroke="#16a34a"/>
    <text x="32" y="30" class="branch-label" font-size="12">Regular Commit</text>
    <circle cx="20" cy="50" r="6" fill="url(#mergeGradient)" stroke="#7c3aed"/>
    <text x="32" y="55" class="branch-label" font-size="12">Merge Commit</text>
    <circle cx="20" cy="75" r="6" fill="url(#forkGradient)" stroke="#ea580c"/>
    <text x="32" y="80" class="branch-label" font-size="12">Fork Point</text>
    <circle cx="20" cy="100" r="6" fill="url(#tagGradient)" stroke="#0284c7"/>
    <text x="32" y="105" class="branch-label" font-size="12">Tagged</text>
  </g>
  
  <!-- Repository info -->
  <g id="info" transform="translate(20, 2780)">
    <text x="0" y="0" class="branch-label" font-size="12" fill="#666">
      Repository: video-tools
    </text>
    <text x="0" y="20" class="branch-label" font-size="10" fill="#999">
      Generated: 2026-06-22 03:57:31 UTC
    </text>
  </g>
</svg>
