<?xml version="1.0" encoding="UTF-8"?>
<svg xmlns="http://www.w3.org/2000/svg"
     width="300" height="377"
     viewBox="-20 40 1240 1560">
  <style>
    @keyframes sway {
      0%   { transform: translateX(0); }
      25%  { transform: translateX(3px); }
      50%  { transform: translateX(-2px); }
      75%  { transform: translateX(4px); }
      100% { transform: translateX(0); }
    }
    .mini-node { animation: sway 4s ease-in-out infinite; }
    .mini-line { stroke-width: 1.5; fill: none; opacity: 0.5; }
  </style>
  <rect width="100%" height="100%" fill="#0a0a1a" rx="6"/>
  <g class="mini-node">
    <line class="mini-line" stroke="#4ade80" x1="600" y1="60" x2="600" y2="100"/>
    <line class="mini-line" stroke="#4ade80" x1="600" y1="100" x2="600" y2="140"/>
    <path class="mini-line" stroke="#64748b" d="M 600 100 C 600 132, 720 148, 720 180"/>
    <line class="mini-line" stroke="#4ade80" x1="600" y1="140" x2="600" y2="260"/>
    <path class="mini-line" stroke="#64748b" d="M 720 180 C 720 212, 600 228, 600 260"/>
    <line class="mini-line" stroke="#4ade80" x1="600" y1="260" x2="600" y2="300"/>
    <line class="mini-line" stroke="#4ade80" x1="600" y1="300" x2="600" y2="340"/>
    <line class="mini-line" stroke="#4ade80" x1="600" y1="340" x2="600" y2="380"/>
    <line class="mini-line" stroke="#4ade80" x1="600" y1="380" x2="600" y2="420"/>
    <line class="mini-line" stroke="#4ade80" x1="600" y1="420" x2="600" y2="540"/>
    <path class="mini-line" stroke="#64748b" d="M 600 420 C 600 436, 480 444, 480 460"/>
    <path class="mini-line" stroke="#64748b" d="M 480 460 C 480 492, 600 508, 600 540"/>
    <line class="mini-line" stroke="#4ade80" x1="600" y1="540" x2="600" y2="900"/>
    <path class="mini-line" stroke="#64748b" d="M 840 580 C 840 612, 360 628, 360 660"/>
    <path class="mini-line" stroke="#64748b" d="M 360 660 C 360 756, 600 804, 600 900"/>
    <path class="mini-line" stroke="#64748b" d="M 960 740 C 960 772, 240 788, 240 820"/>
    <path class="mini-line" stroke="#64748b" d="M 240 820 C 240 852, 600 868, 600 900"/>
    <line class="mini-line" stroke="#4ade80" x1="600" y1="900" x2="600" y2="940"/>
    <line class="mini-line" stroke="#4ade80" x1="600" y1="940" x2="600" y2="1220"/>
    <path class="mini-line" stroke="#64748b" d="M 600 940 C 600 956, 1080 964, 1080 980"/>
    <path class="mini-line" stroke="#64748b" d="M 1080 980 C 1080 1076, 600 1124, 600 1220"/>
    <path class="mini-line" stroke="#64748b" d="M 120 1060 C 120 1092, 1200 1108, 1200 1140"/>
    <path class="mini-line" stroke="#64748b" d="M 1200 1140 C 1200 1188, 600 1212, 600 1260"/>
    <line class="mini-line" stroke="#4ade80" x1="600" y1="1220" x2="600" y2="1260"/>
    <line class="mini-line" stroke="#4ade80" x1="600" y1="1260" x2="600" y2="1300"/>
    <line class="mini-line" stroke="#4ade80" x1="600" y1="1300" x2="600" y2="1420"/>
    <path class="mini-line" stroke="#64748b" d="M 600 1300 C 600 1316, 0 1324, 0 1340"/>
    <path class="mini-line" stroke="#64748b" d="M 0 1340 C 0 1372, 600 1388, 600 1420"/>
    <line class="mini-line" stroke="#4ade80" x1="600" y1="1420" x2="600" y2="1460"/>
    <line class="mini-line" stroke="#4ade80" x1="600" y1="1460" x2="600" y2="1500"/>
    <line class="mini-line" stroke="#4ade80" x1="600" y1="1500" x2="600" y2="1540"/>
    <line class="mini-line" stroke="#4ade80" x1="600" y1="1540" x2="600" y2="1580"/>
    <circle cx="600" cy="60" r="4" fill="#4ade80" opacity="0.9"/>
    <circle cx="600" cy="100" r="7" fill="#c084fc" opacity="0.9"/>
    <circle cx="600" cy="140" r="4" fill="#4ade80" opacity="0.9"/>
    <circle cx="720" cy="180" r="4" fill="#4ade80" opacity="0.9"/>
    <circle cx="600" cy="260" r="6" fill="#fb923c" opacity="0.9"/>
    <circle cx="600" cy="300" r="4" fill="#4ade80" opacity="0.9"/>
    <circle cx="600" cy="340" r="4" fill="#4ade80" opacity="0.9"/>
    <circle cx="600" cy="380" r="4" fill="#4ade80" opacity="0.9"/>
    <circle cx="600" cy="420" r="7" fill="#c084fc" opacity="0.9"/>
    <circle cx="480" cy="460" r="4" fill="#4ade80" opacity="0.9"/>
    <circle cx="600" cy="540" r="6" fill="#fb923c" opacity="0.9"/>
    <circle cx="840" cy="580" r="4" fill="#4ade80" opacity="0.9"/>
    <circle cx="360" cy="660" r="4" fill="#4ade80" opacity="0.9"/>
    <circle cx="960" cy="740" r="4" fill="#4ade80" opacity="0.9"/>
    <circle cx="240" cy="820" r="4" fill="#4ade80" opacity="0.9"/>
    <circle cx="600" cy="900" r="6" fill="#fb923c" opacity="0.9"/>
    <circle cx="600" cy="940" r="7" fill="#c084fc" opacity="0.9"/>
    <circle cx="1080" cy="980" r="4" fill="#4ade80" opacity="0.9"/>
    <circle cx="120" cy="1060" r="4" fill="#4ade80" opacity="0.9"/>
    <circle cx="1200" cy="1140" r="4" fill="#4ade80" opacity="0.9"/>
    <circle cx="600" cy="1220" r="6" fill="#fb923c" opacity="0.9"/>
    <circle cx="600" cy="1260" r="6" fill="#fb923c" opacity="0.9"/>
    <circle cx="600" cy="1300" r="7" fill="#c084fc" opacity="0.9"/>
    <circle cx="0" cy="1340" r="4" fill="#4ade80" opacity="0.9"/>
    <circle cx="600" cy="1420" r="6" fill="#fb923c" opacity="0.9"/>
    <circle cx="600" cy="1460" r="4" fill="#4ade80" opacity="0.9"/>
    <circle cx="600" cy="1500" r="4" fill="#4ade80" opacity="0.9"/>
    <circle cx="600" cy="1540" r="4" fill="#4ade80" opacity="0.9"/>
    <circle cx="600" cy="1580" r="4" fill="#4ade80" opacity="0.9"/>
  </g>
</svg>
