<?xml version="1.0" encoding="UTF-8"?>
<svg xmlns="http://www.w3.org/2000/svg" 
     xmlns:xlink="http://www.w3.org/1999/xlink"
     width="1600" height="1700" 
     viewBox="0 0 1600 1700">
  <defs>
    <radialGradient id="leafGradient">
      <stop offset="0%" style="stop-color:#22c55e;stop-opacity:1" />
      <stop offset="100%" style="stop-color:#16a34a;stop-opacity:0.8" />
    </radialGradient>
    <radialGradient id="mergeGradient">
      <stop offset="0%" style="stop-color:#a78bfa;stop-opacity:1" />
      <stop offset="100%" style="stop-color:#7c3aed;stop-opacity:0.8" />
    </radialGradient>
    <radialGradient id="forkGradient">
      <stop offset="0%" style="stop-color:#fb923c;stop-opacity:1" />
      <stop offset="100%" style="stop-color:#ea580c;stop-opacity:0.8" />
    </radialGradient>
    <radialGradient id="tagGradient">
      <stop offset="0%" style="stop-color:#38bdf8;stop-opacity:1" />
      <stop offset="100%" style="stop-color:#0284c7;stop-opacity:0.8" />
    </radialGradient>
    <style>
      .branch-line { stroke: #64748b; stroke-width: 2; fill: none; opacity: 0.7; }
      .trunk-line { stroke: #22c55e; stroke-width: 2.5; fill: none; opacity: 0.6; }
      .commit-leaf { cursor: pointer; }
      .commit-leaf:hover { filter: brightness(1.5); }
      .branch-label { font-family: sans-serif; font-size: 12px; font-weight: bold; fill: #0f172a; }
    </style>
  </defs>
  
  <rect width="1600" height="1700" fill="#f8fafc"/>
  <defs>
    <pattern id="grid" width="100" height="100" patternUnits="userSpaceOnUse">
      <path d="M 100 0 L 0 0 0 100" fill="none" stroke="#e2e8f0" stroke-width="0.5" opacity="0.3"/>
    </pattern>
  </defs>
  <rect width="1600" height="1700" fill="url(#grid)"/>
  
  <!-- Branch connection lines -->
  <g id="branches">
    <line class="trunk-line" x1="600" y1="60" x2="600" y2="100"/>
    <line class="trunk-line" x1="600" y1="100" x2="600" y2="140"/>
    <path class="branch-line" d="M 600 100 C 600 132, 720 148, 720 180"/>
    <line class="trunk-line" x1="600" y1="140" x2="600" y2="260"/>
    <path class="branch-line" d="M 720 180 C 720 212, 600 228, 600 260"/>
    <line class="trunk-line" x1="600" y1="260" x2="600" y2="300"/>
    <line class="trunk-line" x1="600" y1="300" x2="600" y2="340"/>
    <line class="trunk-line" x1="600" y1="340" x2="600" y2="380"/>
    <line class="trunk-line" x1="600" y1="380" x2="600" y2="420"/>
    <line class="trunk-line" x1="600" y1="420" x2="600" y2="540"/>
    <path class="branch-line" d="M 600 420 C 600 436, 480 444, 480 460"/>
    <path class="branch-line" d="M 480 460 C 480 492, 600 508, 600 540"/>
    <line class="trunk-line" x1="600" y1="540" x2="600" y2="900"/>
    <path class="branch-line" d="M 840 580 C 840 612, 360 628, 360 660"/>
    <path class="branch-line" d="M 360 660 C 360 756, 600 804, 600 900"/>
    <path class="branch-line" d="M 960 740 C 960 772, 240 788, 240 820"/>
    <path class="branch-line" d="M 240 820 C 240 852, 600 868, 600 900"/>
    <line class="trunk-line" x1="600" y1="900" x2="600" y2="940"/>
    <line class="trunk-line" x1="600" y1="940" x2="600" y2="1220"/>
    <path class="branch-line" d="M 600 940 C 600 956, 1080 964, 1080 980"/>
    <path class="branch-line" d="M 1080 980 C 1080 1076, 600 1124, 600 1220"/>
    <path class="branch-line" d="M 120 1060 C 120 1092, 1200 1108, 1200 1140"/>
    <path class="branch-line" d="M 1200 1140 C 1200 1188, 600 1212, 600 1260"/>
    <line class="trunk-line" x1="600" y1="1220" x2="600" y2="1260"/>
    <line class="trunk-line" x1="600" y1="1260" x2="600" y2="1300"/>
    <line class="trunk-line" x1="600" y1="1300" x2="600" y2="1420"/>
    <path class="branch-line" d="M 600 1300 C 600 1316, 0 1324, 0 1340"/>
    <path class="branch-line" d="M 0 1340 C 0 1372, 600 1388, 600 1420"/>
    <line class="trunk-line" x1="600" y1="1420" x2="600" y2="1460"/>
    <line class="trunk-line" x1="600" y1="1460" x2="600" y2="1500"/>
    <line class="trunk-line" x1="600" y1="1500" x2="600" y2="1540"/>
    <line class="trunk-line" x1="600" y1="1540" x2="600" y2="1580"/>
  </g>
  <!-- Commit nodes -->
  <g id="commits">
    <circle class="commit-leaf" cx="600" cy="60" r="6" fill="url(#leafGradient)" stroke="#16a34a" stroke-width="1.5"><title>ff93c14: chore: update 1 submodule(s) to latest</title></circle>
    <circle class="commit-leaf" cx="600" cy="100" r="10" fill="url(#mergeGradient)" stroke="#7c3aed" stroke-width="1.5"><title>04a6dcc: Merge pull request #5 from XAOSTECH:chore/update-submodules-20260406-021241</title></circle>
    <circle class="commit-leaf" cx="600" cy="140" r="6" fill="url(#leafGradient)" stroke="#16a34a" stroke-width="1.5"><title>1fefa61: chore: update git tree visualisation</title></circle>
    <circle class="commit-leaf" cx="720" cy="180" r="6" fill="url(#leafGradient)" stroke="#16a34a" stroke-width="1.5"><title>651e60f: chore: update 3 submodule(s) to latest</title></circle>
    <circle class="commit-leaf" cx="600" cy="260" r="9" fill="url(#forkGradient)" stroke="#ea580c" stroke-width="1.5"><title>7a3b1de: chore: update git tree visualisation</title></circle>
    <circle class="commit-leaf" cx="600" cy="300" r="6" fill="url(#leafGradient)" stroke="#16a34a" stroke-width="1.5"><title>478cf7a: chore(dc-init): load workflows,actions</title></circle>
    <circle class="commit-leaf" cx="600" cy="340" r="6" fill="url(#leafGradient)" stroke="#16a34a" stroke-width="1.5"><title>6428e85: chore(dc-init): update workflows,actions</title></circle>
    <circle class="commit-leaf" cx="600" cy="380" r="6" fill="url(#leafGradient)" stroke="#16a34a" stroke-width="1.5"><title>a45c24b: chore(dc-init): recover interrupted update</title></circle>
    <circle class="commit-leaf" cx="600" cy="420" r="10" fill="url(#mergeGradient)" stroke="#7c3aed" stroke-width="1.5"><title>f8e219c: Merge pull request #4 from XAOSTECH:chore/update-submodules-20260314-202008</title></circle>
    <circle class="commit-leaf" cx="480" cy="460" r="6" fill="url(#leafGradient)" stroke="#16a34a" stroke-width="1.5"><title>eb1cbd5: chore: update 5 submodule(s) to latest</title></circle>
    <circle class="commit-leaf" cx="600" cy="540" r="9" fill="url(#forkGradient)" stroke="#ea580c" stroke-width="1.5"><title>c0b7b4d: chore(dc-init): update workflows/actions</title></circle>
    <circle class="commit-leaf" cx="840" cy="580" r="6" fill="url(#leafGradient)" stroke="#16a34a" stroke-width="1.5"><title>ab5b093: chore: update 5 submodule(s) to latest</title></circle>
    <circle class="commit-leaf" cx="360" cy="660" r="6" fill="url(#leafGradient)" stroke="#16a34a" stroke-width="1.5"><title>c85fc48: chore(dc-init): update workflows/actions</title></circle>
    <circle class="commit-leaf" cx="960" cy="740" r="6" fill="url(#leafGradient)" stroke="#16a34a" stroke-width="1.5"><title>47c795e: chore: update 5 submodule(s) to latest</title></circle>
    <circle class="commit-leaf" cx="240" cy="820" r="6" fill="url(#leafGradient)" stroke="#16a34a" stroke-width="1.5"><title>6b6243c: chore(dc-init): update workflows/actions</title></circle>
    <circle class="commit-leaf" cx="600" cy="900" r="9" fill="url(#forkGradient)" stroke="#ea580c" stroke-width="1.5"><title>ac5c738: chore(dc-contain) + fix (replace.yml): remove dash</title></circle>
    <circle class="commit-leaf" cx="600" cy="940" r="10" fill="url(#mergeGradient)" stroke="#7c3aed" stroke-width="1.5"><title>d2bd2ed: Merge pull request #3 from XAOSTECH:anglicise/20260306-022118\n\nchore: Convert American spellings to British English</title></circle>
    <circle class="commit-leaf" cx="1080" cy="980" r="6" fill="url(#leafGradient)" stroke="#16a34a" stroke-width="1.5"><title>b5d5eb6: chore: convert American spellings to British English</title></circle>
    <circle class="commit-leaf" cx="120" cy="1060" r="6" fill="url(#leafGradient)" stroke="#16a34a" stroke-width="1.5"><title>4928eeb: chore: convert American spellings to British English</title></circle>
    <circle class="commit-leaf" cx="1200" cy="1140" r="6" fill="url(#leafGradient)" stroke="#16a34a" stroke-width="1.5"><title>4fc3ed2: chore: dc-init 2</title></circle>
    <circle class="commit-leaf" cx="600" cy="1220" r="9" fill="url(#forkGradient)" stroke="#ea580c" stroke-width="1.5"><title>aac0ca2: chore: dc-init 2</title></circle>
    <circle class="commit-leaf" cx="600" cy="1260" r="9" fill="url(#forkGradient)" stroke="#ea580c" stroke-width="1.5"><title>59ba59d: Update monorepo docs: reflect unlimited crash recovery, fix crash limit references</title></circle>
    <circle class="commit-leaf" cx="600" cy="1300" r="10" fill="url(#mergeGradient)" stroke="#7c3aed" stroke-width="1.5"><title>0acaba1: Merge pull request #1 from XAOSTECH:anglicise/20260301-022549\n\nchore: Convert American spellings to British English</title></circle>
    <circle class="commit-leaf" cx="0" cy="1340" r="6" fill="url(#leafGradient)" stroke="#16a34a" stroke-width="1.5"><title>7728aff: chore: convert American spellings to British English</title></circle>
    <circle class="commit-leaf" cx="600" cy="1420" r="9" fill="url(#forkGradient)" stroke="#ea580c" stroke-width="1.5"><title>be1fc23: Update main documentation: integrate all modules with credits</title></circle>
    <circle class="commit-leaf" cx="600" cy="1460" r="6" fill="url(#leafGradient)" stroke="#16a34a" stroke-width="1.5"><title>4bfff04: chore: dc-contain + americanise</title></circle>
    <circle class="commit-leaf" cx="600" cy="1500" r="6" fill="url(#leafGradient)" stroke="#16a34a" stroke-width="1.5"><title>8999317: docs: comprehensive P010 HDR integration README at workspace root</title></circle>
    <circle class="commit-leaf" cx="600" cy="1540" r="6" fill="url(#leafGradient)" stroke="#16a34a" stroke-width="1.5"><title>ba392de: chore: add P010_for_V4L2 as submodule for Linux HDR kernel support</title></circle>
    <circle class="commit-leaf" cx="600" cy="1580" r="6" fill="url(#leafGradient)" stroke="#16a34a" stroke-width="1.5"><title>4b54122: dc-init</title></circle>
  </g>
  
  <!-- Legend -->
  <g id="legend" transform="translate(20, 20)">
    <rect width="200" height="110" fill="white" stroke="#cbd5e1" stroke-width="1" rx="4"/>
    <circle cx="20" cy="25" r="5" fill="url(#leafGradient)" stroke="#16a34a"/>
    <text x="32" y="30" class="branch-label" font-size="12">Regular Commit</text>
    <circle cx="20" cy="50" r="6" fill="url(#mergeGradient)" stroke="#7c3aed"/>
    <text x="32" y="55" class="branch-label" font-size="12">Merge Commit</text>
    <circle cx="20" cy="75" r="6" fill="url(#forkGradient)" stroke="#ea580c"/>
    <text x="32" y="80" class="branch-label" font-size="12">Fork Point</text>
    <circle cx="20" cy="100" r="6" fill="url(#tagGradient)" stroke="#0284c7"/>
    <text x="32" y="105" class="branch-label" font-size="12">Tagged</text>
  </g>
  
  <!-- Repository info -->
  <g id="info" transform="translate(20, 1660)">
    <text x="0" y="0" class="branch-label" font-size="12" fill="#666">
      Repository: video-tools
    </text>
    <text x="0" y="20" class="branch-label" font-size="10" fill="#999">
      Generated: 2026-04-13 02:29:13 UTC
    </text>
  </g>
</svg>
