<?xml version="1.0" encoding="UTF-8"?>
<svg xmlns="http://www.w3.org/2000/svg"
     width="300" height="402"
     viewBox="-740 40 2680 3600">
  <style>
    @keyframes sway {
      0%   { transform: translateX(0); }
      25%  { transform: translateX(3px); }
      50%  { transform: translateX(-2px); }
      75%  { transform: translateX(4px); }
      100% { transform: translateX(0); }
    }
    .mini-node { animation: sway 4s ease-in-out infinite; }
    .mini-line { stroke-width: 1.5; fill: none; opacity: 0.5; }
  </style>
  <rect width="100%" height="100%" fill="#0a0a1a" rx="6"/>
  <g class="mini-node">
    <line class="mini-line" stroke="#4ade80" x1="600" y1="60" x2="600" y2="100"/>
    <line class="mini-line" stroke="#4ade80" x1="600" y1="100" x2="600" y2="140"/>
    <path class="mini-line" stroke="#64748b" d="M 600 100 C 600 132, 720 148, 720 180"/>
    <line class="mini-line" stroke="#4ade80" x1="600" y1="140" x2="600" y2="260"/>
    <path class="mini-line" stroke="#64748b" d="M 720 180 C 720 212, 600 228, 600 260"/>
    <line class="mini-line" stroke="#4ade80" x1="600" y1="260" x2="600" y2="300"/>
    <line class="mini-line" stroke="#4ade80" x1="600" y1="300" x2="600" y2="340"/>
    <line class="mini-line" stroke="#4ade80" x1="600" y1="340" x2="600" y2="380"/>
    <path class="mini-line" stroke="#64748b" d="M 600 340 C 600 372, 480 388, 480 420"/>
    <line class="mini-line" stroke="#4ade80" x1="600" y1="380" x2="600" y2="500"/>
    <path class="mini-line" stroke="#64748b" d="M 480 420 C 480 452, 600 468, 600 500"/>
    <line class="mini-line" stroke="#4ade80" x1="600" y1="500" x2="600" y2="540"/>
    <path class="mini-line" stroke="#64748b" d="M 600 500 C 600 532, 840 548, 840 580"/>
    <line class="mini-line" stroke="#4ade80" x1="600" y1="540" x2="600" y2="660"/>
    <path class="mini-line" stroke="#64748b" d="M 840 580 C 840 612, 600 628, 600 660"/>
    <line class="mini-line" stroke="#4ade80" x1="600" y1="660" x2="600" y2="700"/>
    <path class="mini-line" stroke="#64748b" d="M 600 660 C 600 692, 360 708, 360 740"/>
    <line class="mini-line" stroke="#4ade80" x1="600" y1="700" x2="600" y2="820"/>
    <path class="mini-line" stroke="#64748b" d="M 360 740 C 360 772, 600 788, 600 820"/>
    <line class="mini-line" stroke="#4ade80" x1="600" y1="820" x2="600" y2="860"/>
    <line class="mini-line" stroke="#4ade80" x1="600" y1="860" x2="600" y2="900"/>
    <path class="mini-line" stroke="#64748b" d="M 600 860 C 600 892, 960 908, 960 940"/>
    <line class="mini-line" stroke="#4ade80" x1="600" y1="900" x2="600" y2="1020"/>
    <path class="mini-line" stroke="#64748b" d="M 960 940 C 960 972, 600 988, 600 1020"/>
    <line class="mini-line" stroke="#4ade80" x1="600" y1="1020" x2="600" y2="1060"/>
    <path class="mini-line" stroke="#64748b" d="M 600 1020 C 600 1052, 240 1068, 240 1100"/>
    <line class="mini-line" stroke="#4ade80" x1="600" y1="1060" x2="600" y2="1180"/>
    <path class="mini-line" stroke="#64748b" d="M 240 1100 C 240 1132, 600 1148, 600 1180"/>
    <line class="mini-line" stroke="#4ade80" x1="600" y1="1180" x2="600" y2="1300"/>
    <path class="mini-line" stroke="#64748b" d="M 600 1180 C 600 1196, 1080 1204, 1080 1220"/>
    <path class="mini-line" stroke="#64748b" d="M 1080 1220 C 1080 1252, 600 1268, 600 1300"/>
    <line class="mini-line" stroke="#4ade80" x1="600" y1="1300" x2="600" y2="1340"/>
    <path class="mini-line" stroke="#64748b" d="M 600 1300 C 600 1332, 120 1348, 120 1380"/>
    <line class="mini-line" stroke="#4ade80" x1="600" y1="1340" x2="600" y2="1460"/>
    <path class="mini-line" stroke="#64748b" d="M 120 1380 C 120 1412, 600 1428, 600 1460"/>
    <line class="mini-line" stroke="#4ade80" x1="600" y1="1460" x2="600" y2="1500"/>
    <line class="mini-line" stroke="#4ade80" x1="600" y1="1500" x2="600" y2="1540"/>
    <path class="mini-line" stroke="#64748b" d="M 600 1500 C 600 1532, 1200 1548, 1200 1580"/>
    <line class="mini-line" stroke="#4ade80" x1="600" y1="1540" x2="600" y2="1660"/>
    <path class="mini-line" stroke="#64748b" d="M 1200 1580 C 1200 1612, 600 1628, 600 1660"/>
    <line class="mini-line" stroke="#4ade80" x1="600" y1="1660" x2="600" y2="1780"/>
    <path class="mini-line" stroke="#64748b" d="M 600 1660 C 600 1676, 0 1684, 0 1700"/>
    <path class="mini-line" stroke="#64748b" d="M 0 1700 C 0 1732, 600 1748, 600 1780"/>
    <line class="mini-line" stroke="#4ade80" x1="600" y1="1780" x2="600" y2="1900"/>
    <path class="mini-line" stroke="#64748b" d="M 600 1780 C 600 1796, 1320 1804, 1320 1820"/>
    <path class="mini-line" stroke="#64748b" d="M 1320 1820 C 1320 1852, 600 1868, 600 1900"/>
    <line class="mini-line" stroke="#4ade80" x1="600" y1="1900" x2="600" y2="1940"/>
    <line class="mini-line" stroke="#4ade80" x1="600" y1="1940" x2="600" y2="1980"/>
    <line class="mini-line" stroke="#4ade80" x1="600" y1="1980" x2="600" y2="2020"/>
    <path class="mini-line" stroke="#64748b" d="M 600 1980 C 600 2012, -120 2028, -120 2060"/>
    <line class="mini-line" stroke="#4ade80" x1="600" y1="2020" x2="600" y2="2140"/>
    <path class="mini-line" stroke="#64748b" d="M -120 2060 C -120 2092, 600 2108, 600 2140"/>
    <line class="mini-line" stroke="#4ade80" x1="600" y1="2140" x2="600" y2="2180"/>
    <path class="mini-line" stroke="#64748b" d="M 600 2140 C 600 2172, 1440 2188, 1440 2220"/>
    <line class="mini-line" stroke="#4ade80" x1="600" y1="2180" x2="600" y2="2300"/>
    <path class="mini-line" stroke="#64748b" d="M 1440 2220 C 1440 2252, 600 2268, 600 2300"/>
    <line class="mini-line" stroke="#4ade80" x1="600" y1="2300" x2="600" y2="2340"/>
    <line class="mini-line" stroke="#4ade80" x1="600" y1="2340" x2="600" y2="2380"/>
    <line class="mini-line" stroke="#4ade80" x1="600" y1="2380" x2="600" y2="2420"/>
    <line class="mini-line" stroke="#4ade80" x1="600" y1="2420" x2="600" y2="2460"/>
    <line class="mini-line" stroke="#4ade80" x1="600" y1="2460" x2="600" y2="2580"/>
    <path class="mini-line" stroke="#64748b" d="M 600 2460 C 600 2476, -240 2484, -240 2500"/>
    <path class="mini-line" stroke="#64748b" d="M -240 2500 C -240 2532, 600 2548, 600 2580"/>
    <line class="mini-line" stroke="#4ade80" x1="600" y1="2580" x2="600" y2="2940"/>
    <path class="mini-line" stroke="#64748b" d="M 1560 2620 C 1560 2652, -360 2668, -360 2700"/>
    <path class="mini-line" stroke="#64748b" d="M -360 2700 C -360 2796, 600 2844, 600 2940"/>
    <path class="mini-line" stroke="#64748b" d="M 1680 2780 C 1680 2812, -480 2828, -480 2860"/>
    <path class="mini-line" stroke="#64748b" d="M -480 2860 C -480 2892, 600 2908, 600 2940"/>
    <line class="mini-line" stroke="#4ade80" x1="600" y1="2940" x2="600" y2="2980"/>
    <line class="mini-line" stroke="#4ade80" x1="600" y1="2980" x2="600" y2="3260"/>
    <path class="mini-line" stroke="#64748b" d="M 600 2980 C 600 2996, 1800 3004, 1800 3020"/>
    <path class="mini-line" stroke="#64748b" d="M 1800 3020 C 1800 3116, 600 3164, 600 3260"/>
    <path class="mini-line" stroke="#64748b" d="M -600 3100 C -600 3132, 1920 3148, 1920 3180"/>
    <path class="mini-line" stroke="#64748b" d="M 1920 3180 C 1920 3228, 600 3252, 600 3300"/>
    <line class="mini-line" stroke="#4ade80" x1="600" y1="3260" x2="600" y2="3300"/>
    <line class="mini-line" stroke="#4ade80" x1="600" y1="3300" x2="600" y2="3340"/>
    <line class="mini-line" stroke="#4ade80" x1="600" y1="3340" x2="600" y2="3460"/>
    <path class="mini-line" stroke="#64748b" d="M 600 3340 C 600 3356, -720 3364, -720 3380"/>
    <path class="mini-line" stroke="#64748b" d="M -720 3380 C -720 3412, 600 3428, 600 3460"/>
    <line class="mini-line" stroke="#4ade80" x1="600" y1="3460" x2="600" y2="3500"/>
    <line class="mini-line" stroke="#4ade80" x1="600" y1="3500" x2="600" y2="3540"/>
    <line class="mini-line" stroke="#4ade80" x1="600" y1="3540" x2="600" y2="3580"/>
    <line class="mini-line" stroke="#4ade80" x1="600" y1="3580" x2="600" y2="3620"/>
    <circle cx="600" cy="60" r="4" fill="#4ade80" opacity="0.9"/>
    <circle cx="600" cy="100" r="7" fill="#c084fc" opacity="0.9"/>
    <circle cx="600" cy="140" r="4" fill="#4ade80" opacity="0.9"/>
    <circle cx="720" cy="180" r="4" fill="#4ade80" opacity="0.9"/>
    <circle cx="600" cy="260" r="6" fill="#fb923c" opacity="0.9"/>
    <circle cx="600" cy="300" r="4" fill="#4ade80" opacity="0.9"/>
    <circle cx="600" cy="340" r="7" fill="#c084fc" opacity="0.9"/>
    <circle cx="600" cy="380" r="4" fill="#4ade80" opacity="0.9"/>
    <circle cx="480" cy="420" r="4" fill="#4ade80" opacity="0.9"/>
    <circle cx="600" cy="500" r="7" fill="#c084fc" opacity="0.9"/>
    <circle cx="600" cy="540" r="4" fill="#4ade80" opacity="0.9"/>
    <circle cx="840" cy="580" r="4" fill="#4ade80" opacity="0.9"/>
    <circle cx="600" cy="660" r="7" fill="#c084fc" opacity="0.9"/>
    <circle cx="600" cy="700" r="4" fill="#4ade80" opacity="0.9"/>
    <circle cx="360" cy="740" r="4" fill="#4ade80" opacity="0.9"/>
    <circle cx="600" cy="820" r="6" fill="#fb923c" opacity="0.9"/>
    <circle cx="600" cy="860" r="7" fill="#c084fc" opacity="0.9"/>
    <circle cx="600" cy="900" r="4" fill="#4ade80" opacity="0.9"/>
    <circle cx="960" cy="940" r="4" fill="#4ade80" opacity="0.9"/>
    <circle cx="600" cy="1020" r="7" fill="#c084fc" opacity="0.9"/>
    <circle cx="600" cy="1060" r="4" fill="#4ade80" opacity="0.9"/>
    <circle cx="240" cy="1100" r="4" fill="#4ade80" opacity="0.9"/>
    <circle cx="600" cy="1180" r="7" fill="#c084fc" opacity="0.9"/>
    <circle cx="1080" cy="1220" r="4" fill="#4ade80" opacity="0.9"/>
    <circle cx="600" cy="1300" r="7" fill="#c084fc" opacity="0.9"/>
    <circle cx="600" cy="1340" r="4" fill="#4ade80" opacity="0.9"/>
    <circle cx="120" cy="1380" r="4" fill="#4ade80" opacity="0.9"/>
    <circle cx="600" cy="1460" r="6" fill="#fb923c" opacity="0.9"/>
    <circle cx="600" cy="1500" r="7" fill="#c084fc" opacity="0.9"/>
    <circle cx="600" cy="1540" r="4" fill="#4ade80" opacity="0.9"/>
    <circle cx="1200" cy="1580" r="4" fill="#4ade80" opacity="0.9"/>
    <circle cx="600" cy="1660" r="7" fill="#c084fc" opacity="0.9"/>
    <circle cx="0" cy="1700" r="4" fill="#4ade80" opacity="0.9"/>
    <circle cx="600" cy="1780" r="7" fill="#c084fc" opacity="0.9"/>
    <circle cx="1320" cy="1820" r="4" fill="#4ade80" opacity="0.9"/>
    <circle cx="600" cy="1900" r="6" fill="#fb923c" opacity="0.9"/>
    <circle cx="600" cy="1940" r="4" fill="#4ade80" opacity="0.9"/>
    <circle cx="600" cy="1980" r="7" fill="#c084fc" opacity="0.9"/>
    <circle cx="600" cy="2020" r="4" fill="#4ade80" opacity="0.9"/>
    <circle cx="-120" cy="2060" r="4" fill="#4ade80" opacity="0.9"/>
    <circle cx="600" cy="2140" r="7" fill="#c084fc" opacity="0.9"/>
    <circle cx="600" cy="2180" r="4" fill="#4ade80" opacity="0.9"/>
    <circle cx="1440" cy="2220" r="4" fill="#4ade80" opacity="0.9"/>
    <circle cx="600" cy="2300" r="6" fill="#fb923c" opacity="0.9"/>
    <circle cx="600" cy="2340" r="4" fill="#4ade80" opacity="0.9"/>
    <circle cx="600" cy="2380" r="4" fill="#4ade80" opacity="0.9"/>
    <circle cx="600" cy="2420" r="4" fill="#4ade80" opacity="0.9"/>
    <circle cx="600" cy="2460" r="7" fill="#c084fc" opacity="0.9"/>
    <circle cx="-240" cy="2500" r="4" fill="#4ade80" opacity="0.9"/>
    <circle cx="600" cy="2580" r="6" fill="#fb923c" opacity="0.9"/>
    <circle cx="1560" cy="2620" r="4" fill="#4ade80" opacity="0.9"/>
    <circle cx="-360" cy="2700" r="4" fill="#4ade80" opacity="0.9"/>
    <circle cx="1680" cy="2780" r="4" fill="#4ade80" opacity="0.9"/>
    <circle cx="-480" cy="2860" r="4" fill="#4ade80" opacity="0.9"/>
    <circle cx="600" cy="2940" r="6" fill="#fb923c" opacity="0.9"/>
    <circle cx="600" cy="2980" r="7" fill="#c084fc" opacity="0.9"/>
    <circle cx="1800" cy="3020" r="4" fill="#4ade80" opacity="0.9"/>
    <circle cx="-600" cy="3100" r="4" fill="#4ade80" opacity="0.9"/>
    <circle cx="1920" cy="3180" r="4" fill="#4ade80" opacity="0.9"/>
    <circle cx="600" cy="3260" r="6" fill="#fb923c" opacity="0.9"/>
    <circle cx="600" cy="3300" r="6" fill="#fb923c" opacity="0.9"/>
    <circle cx="600" cy="3340" r="7" fill="#c084fc" opacity="0.9"/>
    <circle cx="-720" cy="3380" r="4" fill="#4ade80" opacity="0.9"/>
    <circle cx="600" cy="3460" r="6" fill="#fb923c" opacity="0.9"/>
    <circle cx="600" cy="3500" r="4" fill="#4ade80" opacity="0.9"/>
    <circle cx="600" cy="3540" r="4" fill="#4ade80" opacity="0.9"/>
    <circle cx="600" cy="3580" r="4" fill="#4ade80" opacity="0.9"/>
    <circle cx="600" cy="3620" r="4" fill="#4ade80" opacity="0.9"/>
  </g>
</svg>
